STARTFONT 2.1
COMMENT Created by fdbbdf
FONT xhextris
SIZE 10 78 78
FONTBOUNDINGBOX 37 27 0 -27
STARTPROPERTIES 4
Ownership " Created by Jon Slenk for Hextris by David Markley (c) 1990, Created by Khun Yee Fung "
FONT_ASCENT 0
FONT_DESCENT 27
DEFAULT_CHAR 0
ENDPROPERTIES
CHARS 59
STARTCHAR ch-0
ENCODING -1 0
SWIDTH 0 0
DWIDTH 0 0
BBX 9 11 0 -11
BITMAP
f000
d800
d800
db00
f300
0000
f800
1800
1800
db00
fb00
ENDCHAR
STARTCHAR ch-1
ENCODING -1 1
SWIDTH 0 0
DWIDTH 0 0
BBX 8 11 0 -11
BITMAP
0000
0000
0000
0000
0000
0000
0000
0000
0000
0000
0000
ENDCHAR
STARTCHAR ch-2
ENCODING -1 2
SWIDTH 0 0
DWIDTH 0 0
BBX 8 11 0 -11
BITMAP
0000
0000
0000
0000
0000
0000
0000
0000
0000
0000
0000
ENDCHAR
STARTCHAR ch-3
ENCODING -1 3
SWIDTH 0 0
DWIDTH 0 0
BBX 8 11 0 -11
BITMAP
0000
0000
0000
0000
0000
0000
0000
0000
0000
0000
0000
ENDCHAR
STARTCHAR ch-4
ENCODING -1 4
SWIDTH 0 0
DWIDTH 0 0
BBX 8 11 0 -11
BITMAP
0000
0000
0000
0000
0000
0000
0000
0000
0000
0000
0000
ENDCHAR
STARTCHAR ch-5
ENCODING -1 5
SWIDTH 0 0
DWIDTH 0 0
BBX 8 11 0 -11
BITMAP
0000
0000
0000
0000
0000
0000
0000
0000
0000
0000
0000
ENDCHAR
STARTCHAR ch-6
ENCODING -1 6
SWIDTH 0 0
DWIDTH 0 0
BBX 8 11 0 -11
BITMAP
0000
0000
0000
0000
0000
0000
0000
0000
0000
0000
0000
ENDCHAR
STARTCHAR ch-7
ENCODING -1 7
SWIDTH 0 0
DWIDTH 0 0
BBX 8 11 0 -11
BITMAP
0000
0000
0000
0000
0000
0000
0000
0000
0000
0000
0000
ENDCHAR
STARTCHAR &
ENCODING -1 38
SWIDTH 0 0
DWIDTH 0 0
BBX 37 18 0 -18
BITMAP
000000000000
000000000000
000000000000
000000000000
000000000000
000000000000
000000000000
000000000000
000000000000
000000000000
000000000000
000000000000
000000000000
000000000000
000000000000
000000000000
000000000000
000000000000
ENDCHAR
STARTCHAR '
ENCODING -1 39
SWIDTH 0 0
DWIDTH 0 0
BBX 19 18 0 -18
BITMAP
00000000
00000000
7fffc000
7fffc000
7c000000
7df7c000
7dc7c000
7dc7c000
7dc7c000
7dc7c000
7dc7c000
7dc7c000
7df7c000
7c07c000
7fffc000
7fffc000
00000000
00000000
ENDCHAR
STARTCHAR (
ENCODING -1 40
SWIDTH 0 0
DWIDTH 0 0
BBX 19 18 0 -18
BITMAP
00000000
00000000
fffe0000
fffe0000
003e0000
003e0000
003e0000
003e0000
fffe0000
fffe0000
e0000000
e0000000
e0000000
e0000000
fffe0000
fffe0000
00000000
00000000
ENDCHAR
STARTCHAR )
ENCODING -1 41
SWIDTH 0 0
DWIDTH 0 0
BBX 19 18 0 -18
BITMAP
00000000
00000000
7ff00000
7ff00000
0f800000
0f800000
0f800000
0f800000
0f800000
0f800000
0f800000
0f800000
0f800000
0f800000
7ff00000
7ff00000
00000000
00000000
ENDCHAR
STARTCHAR *
ENCODING -1 42
SWIDTH 0 0
DWIDTH 0 0
BBX 19 18 0 -18
BITMAP
00000000
00000000
fffe0000
fffe0000
e03e0000
e03e0000
e03e0000
e03e0000
fffe0000
fffe0000
1f3e0000
3e3e0000
7c3e0000
f83e0000
f03e0000
e03e0000
00000000
00000000
ENDCHAR
STARTCHAR +
ENCODING -1 43
SWIDTH 0 0
DWIDTH 0 0
BBX 19 18 0 -18
BITMAP
00000000
00000000
fffe0000
fffe0000
0f800000
0f800000
0f800000
0f800000
0f800000
0f800000
0f800000
0f800000
0f800000
0f800000
0f800000
0f800000
00000000
00000000
ENDCHAR
STARTCHAR ,
ENCODING -1 44
SWIDTH 0 0
DWIDTH 0 0
BBX 19 18 0 -18
BITMAP
00000000
00000000
e03e0000
e03e0000
e03e0000
e03e0000
e03e0000
e03e0000
fffe0000
fffe0000
e03e0000
e03e0000
e03e0000
e03e0000
e03e0000
e03e0000
00000000
00000000
ENDCHAR
STARTCHAR -
ENCODING -1 45
SWIDTH 0 0
DWIDTH 0 0
BBX 19 18 0 -18
BITMAP
00000000
00000000
fffe0000
fffe0000
003e0000
003e0000
003e0000
003e0000
0ffe0000
0ffe0000
003e0000
003e0000
003e0000
003e0000
fffe0000
fffe0000
00000000
00000000
ENDCHAR
STARTCHAR .
ENCODING -1 46
SWIDTH 0 0
DWIDTH 0 0
BBX 19 18 0 -18
BITMAP
00000000
00000000
7c00c000
3e018000
1f030000
0f860000
07cc0000
03d80000
01b00000
01b00000
03780000
067c0000
0c3e0000
181f0000
300f8000
6007c000
00000000
00000000
ENDCHAR
STARTCHAR /
ENCODING -1 47
SWIDTH 0 0
DWIDTH 0 0
BBX 18 27 0 -27
BITMAP
7fff8000
eaaac000
d5554000
aaaac000
d5554000
aaaac000
d5554000
aaaac000
d5554000
aaaac000
d5554000
aaaac000
d5554000
aaaac000
d5554000
aaaac000
d5554000
aaaac000
d5554000
aaaac000
d5554000
aaaac000
d5554000
aaaac000
d5554000
eaaac000
7fff8000
ENDCHAR
STARTCHAR 0
ENCODING -1 48
SWIDTH 0 0
DWIDTH 0 0
BBX 18 27 0 -27
BITMAP
7fff8000
80004000
80004000
81e04000
87f84000
87384000
8f3c4000
8f3c4000
8f3c4000
8f3c4000
8f3c4000
8f3c4000
8f3c4000
8f3c4000
8f3c4000
8f3c4000
8f3c4000
8f3c4000
8f3c4000
8f3c4000
8f3c4000
87384000
87f84000
81e04000
80004000
80004000
7fff8000
ENDCHAR
STARTCHAR 1
ENCODING -1 49
SWIDTH 0 0
DWIDTH 0 0
BBX 18 27 0 -27
BITMAP
7fff8000
80004000
80004000
80e04000
81e04000
83e04000
83e04000
81e04000
81e04000
81e04000
81e04000
81e04000
81e04000
81e04000
81e04000
81e04000
81e04000
81e04000
81e04000
81e04000
81e04000
81e04000
83f04000
83f04000
80004000
80004000
7fff8000
ENDCHAR
STARTCHAR 2
ENCODING -1 50
SWIDTH 0 0
DWIDTH 0 0
BBX 18 27 0 -27
BITMAP
7fff8000
80004000
80004000
83f04000
87f84000
8f3c4000
8f3c4000
803c4000
803c4000
803c4000
80784000
80f84000
81f04000
83e04000
83c04000
87804000
87804000
8f004000
8f004000
8f004000
8f004000
8f004000
8ffc4000
8ffc4000
80004000
80004000
7fff8000
ENDCHAR
STARTCHAR 3
ENCODING -1 51
SWIDTH 0 0
DWIDTH 0 0
BBX 18 27 0 -27
BITMAP
7fff8000
80004000
80004000
8ffc4000
8ffc4000
8f3c4000
8f3c4000
80784000
80f04000
81e04000
83e04000
83f04000
81f84000
80784000
807c4000
803c4000
803c4000
803c4000
803c4000
803c4000
8f384000
8f384000
8ff04000
83e04000
80004000
80004000
7fff8000
ENDCHAR
STARTCHAR 4
ENCODING -1 52
SWIDTH 0 0
DWIDTH 0 0
BBX 18 27 0 -27
BITMAP
7fff8000
80004000
80004000
807c4000
80fc4000
81fc4000
83fc4000
87bc4000
8f3c4000
9e3c4000
9ffe4000
9ffe4000
803c4000
803c4000
803c4000
803c4000
803c4000
803c4000
803c4000
803c4000
803c4000
803c4000
803c4000
803c4000
80004000
80004000
7fff8000
ENDCHAR
STARTCHAR 5
ENCODING -1 53
SWIDTH 0 0
DWIDTH 0 0
BBX 18 27 0 -27
BITMAP
7fff8000
80004000
80004000
8ffc4000
8ffc4000
8f3c4000
8f3c4000
8f004000
8f004000
8fe04000
8ff84000
80f84000
807c4000
803c4000
803c4000
803c4000
803c4000
803c4000
803c4000
803c4000
8f3c4000
8f784000
8ff84000
83e04000
80004000
80004000
7fff8000
ENDCHAR
STARTCHAR 6
ENCODING -1 54
SWIDTH 0 0
DWIDTH 0 0
BBX 18 27 0 -27
BITMAP
7fff8000
80004000
80004000
81e04000
87f84000
87384000
8f3c4000
8f3c4000
8f004000
8f004000
8f004000
8fe04000
8ff84000
8f384000
8f3c4000
8f3c4000
8f3c4000
8f3c4000
8f3c4000
8f3c4000
8f3c4000
87384000
87f84000
81e04000
80004000
80004000
7fff8000
ENDCHAR
STARTCHAR 7
ENCODING -1 55
SWIDTH 0 0
DWIDTH 0 0
BBX 18 27 0 -27
BITMAP
7fff8000
80004000
80004000
9ffe4000
9ffe4000
801e4000
801e4000
803c4000
80784000
80f04000
80f04000
81e04000
81e04000
81e04000
83c04000
83c04000
83c04000
83c04000
83c04000
83c04000
83c04000
83c04000
83c04000
83c04000
80004000
80004000
7fff8000
ENDCHAR
STARTCHAR 8
ENCODING -1 56
SWIDTH 0 0
DWIDTH 0 0
BBX 18 27 0 -27
BITMAP
7fff8000
80004000
80004000
81e04000
87f84000
87384000
8f3c4000
8f3c4000
8f3c4000
8f3c4000
87384000
87f84000
83f04000
87384000
87384000
8f3c4000
8f3c4000
8f3c4000
8f3c4000
8f3c4000
8f3c4000
87384000
87f84000
81e04000
80004000
80004000
7fff8000
ENDCHAR
STARTCHAR 9
ENCODING -1 57
SWIDTH 0 0
DWIDTH 0 0
BBX 18 27 0 -27
BITMAP
7fff8000
80004000
80004000
81e04000
87f84000
87384000
8f3c4000
8f3c4000
8f3c4000
8f3c4000
8f3c4000
8f3c4000
8f3c4000
87fc4000
87fc4000
81fc4000
803c4000
803c4000
803c4000
8f3c4000
8f3c4000
87384000
87f84000
81e04000
80004000
80004000
7fff8000
ENDCHAR
STARTCHAR :
ENCODING -1 58
SWIDTH 0 0
DWIDTH 0 0
BBX 18 27 0 -27
BITMAP
00000000
00000000
00000000
01c00000
02200000
04300000
3aee0000
45d10000
86218000
5c170000
380e0000
00000000
380e0000
44110000
86218000
5c170000
380e0000
00000000
380e0000
44110000
86218000
5dd70000
3a2e0000
04300000
02e00000
01c00000
00000000
ENDCHAR
STARTCHAR ;
ENCODING -1 59
SWIDTH 0 0
DWIDTH 0 0
BBX 18 27 0 -27
BITMAP
04300000
3aee0000
45d10000
86218000
5c170000
380e0000
00000000
000e0000
00110000
00218000
01d70000
022e0000
04300000
02ee0000
01d10000
00218000
00170000
000e0000
00000000
380e0000
44110000
86218000
5dd70000
3a2e0000
04300000
02e00000
01c00000
ENDCHAR
STARTCHAR a
ENCODING -1 97
SWIDTH 0 0
DWIDTH 0 0
BBX 26 26 0 -26
BITMAP
03fff000
03fff000
07fff800
07fff800
0ffffc00
0ffffc00
1ffffe00
1ffffe00
3fffff00
3fffff00
7fffff80
7fffff80
ffffffc0
ffffffc0
7fffff80
7fffff80
3fffff00
3fffff00
1ffffe00
1ffffe00
0ffffc00
0ffffc00
07fff800
07fff800
03fff000
03fff000
ENDCHAR
STARTCHAR b
ENCODING -1 98
SWIDTH 0 0
DWIDTH 0 0
BBX 26 26 0 -26
BITMAP
03fff000
02001000
04003800
04fff800
09557c00
09aabc00
13555e00
12aabe00
25555f00
26aaaf00
4d555780
4aaaaf80
955557c0
9aaaabc0
4d555780
4aaaaf80
25555f00
26aaaf00
13555e00
12aabe00
09557c00
09aabc00
04fff800
05fff800
03fff000
03fff000
ENDCHAR
STARTCHAR c
ENCODING -1 99
SWIDTH 0 0
DWIDTH 0 0
BBX 26 26 0 -26
BITMAP
03fff000
02001000
04003800
04aab800
09fffc00
08fffc00
13ff8e00
11c09e00
27804700
23804f00
4f002380
47002780
8e0013c0
9e0011c0
4f002780
4f002380
27804f00
27804700
13c09e00
13ff8e00
09803c00
09001c00
04aab800
05fff800
03fff000
03fff000
ENDCHAR
STARTCHAR d
ENCODING -1 100
SWIDTH 0 0
DWIDTH 0 0
BBX 26 26 0 -26
BITMAP
03fff000
02001000
04003800
04fff800
09fffc00
09fffc00
137ffe00
13ff7e00
27ebff00
26d5ff00
4f62df80
4fd17780
9aa4efc0
94017fc0
4850bf80
49045780
24012f00
24205f00
12003e00
12011e00
09083c00
09003c00
04fff800
05fff800
03fff000
03fff000
ENDCHAR
STARTCHAR e
ENCODING -1 101
SWIDTH 0 0
DWIDTH 0 0
BBX 26 26 0 -26
BITMAP
03fff000
02001000
04003800
04fff800
09aabc00
09557c00
12aabe00
137d5e00
26bfef00
257bbf00
4ae1ef80
4fc0d780
9ac0ebc0
95e0d7c0
4ac07f80
4de1d780
2577af00
26bf5f00
1355be00
129b5e00
09aabc00
09557c00
04fff800
05fff800
03fff000
03fff000
ENDCHAR
STARTCHAR f
ENCODING -1 102
SWIDTH 0 0
DWIDTH 0 0
BBX 26 26 0 -26
BITMAP
03fff000
02001000
04003800
04fff800
09003c00
09203c00
12081e00
12821e00
24208f00
26082f00
4c820f80
49208780
904823c0
94120bc0
49048780
4a412780
24904f00
25241f00
12491e00
12925e00
0924bc00
09493c00
04fff800
05fff800
03fff000
03fff000
ENDCHAR
STARTCHAR g
ENCODING -1 103
SWIDTH 0 0
DWIDTH 0 0
BBX 26 26 0 -26
BITMAP
03fff000
02001000
06555800
04fff800
0dfffc00
09d57c00
1beefe00
13eefe00
37555f00
275f5f00
6fbbbf80
4fbbbf80
dd5f57c0
dfd577c0
4eeeef80
6eeeef80
27d57f00
375f5f00
13bbbe00
1bbbbe00
09df7c00
0dd57c00
04fff800
07fff800
03fff000
03fff000
ENDCHAR
STARTCHAR h
ENCODING -1 104
SWIDTH 0 0
DWIDTH 0 0
BBX 26 26 0 -26
BITMAP
03fff000
03fff000
07ffe800
07fff800
0f002c00
0f203400
1f401a00
1e879600
3d4d8900
3e9bcb00
7904c480
7c416580
faa8e240
f5187240
7a70bc80
7dd85c80
3fac2b00
3f051900
1ea29200
1f411200
0faa2c00
0f542400
07ffc800
07510800
02a41000
03fff000
ENDCHAR
STARTCHAR i
ENCODING -1 105
SWIDTH 0 0
DWIDTH 0 0
BBX 26 26 0 -26
BITMAP
03fff000
02215000
0404b800
04ffd800
09fffc00
09ffb400
13fede00
13ff3e00
27fd8f00
27fe4f00
4ffb0780
4ffc8780
9ff603c0
9ff903c0
4fec0780
4ff20780
27d80f00
2fe40f00
13b01e00
17c81e00
0be03c00
0d903c00
06fff800
05bff800
036ff000
03fff000
ENDCHAR
STARTCHAR j
ENCODING -1 106
SWIDTH 0 0
DWIDTH 0 0
BBX 26 26 0 -26
BITMAP
03fff000
02001000
04003800
04fff800
09003c00
09447c00
12001e00
12aabe00
24222f00
25555f00
4aaaaf80
4d75d780
9fffffc0
9fffffc0
4d75d780
4aaaaf80
25555f00
24888f00
12aabe00
12001e00
09113c00
09003c00
04fff800
05fff800
03fff000
03fff000
ENDCHAR
STARTCHAR k
ENCODING -1 107
SWIDTH 0 0
DWIDTH 0 0
BBX 26 26 0 -26
BITMAP
03fff000
03fff000
06003800
06fff800
0dfffc00
0dfffc00
1bfffe00
1bfffe00
37fffb00
37ffff00
6ffffd80
6fffff80
dffffec0
dffffdc0
6fffff80
6ffffd80
37fffb00
37fff700
1bfffe00
1bfff600
0dffec00
0dffdc00
06fff800
07555800
03fff000
03fff000
ENDCHAR
STARTCHAR l
ENCODING -1 108
SWIDTH 0 0
DWIDTH 0 0
BBX 26 26 0 -26
BITMAP
03fff000
03501000
07e2a800
07604800
0d7ca400
0aaf5400
1d41aa00
13602600
22cd5b00
2daa2500
4bd99380
56a2f580
ae65aac0
94a345c0
6215b380
50ab1580
235eeb00
2df22700
1208ca00
15929600
0aa92c00
09435c00
06bea800
05557800
03fef000
03fff000
ENDCHAR
STARTCHAR m
ENCODING -1 109
SWIDTH 0 0
DWIDTH 0 0
BBX 26 26 0 -26
BITMAP
03fff000
0376b000
07dd7800
07bab800
0ffde000
1ffb4400
1ad75e00
0f3eb600
0375df00
1ceb7700
3ff5eb80
7babff80
bed7bbc0
f72ff7c0
6bd6eb80
57edb780
2adb0d00
2d77c000
1fbfc000
15ff7000
0faab000
02f57000
007ab800
037ff800
03fff000
03fff000
ENDCHAR
STARTCHAR p
ENCODING -1 112
SWIDTH 0 0
DWIDTH 0 0
BBX 9 11 0 -11
BITMAP
f000
d800
d800
db00
f300
0000
f800
1800
1800
db00
fb00
ENDCHAR
STARTCHAR q
ENCODING -1 113
SWIDTH 0 0
DWIDTH 0 0
BBX 19 18 0 -18
BITMAP
00000000
00000000
e03e0000
e03e0000
e03e0000
e03e0000
e03e0000
e03e0000
fffe0000
fffe0000
e03e0000
e03e0000
e03e0000
e03e0000
e03e0000
e03e0000
00000000
00000000
ENDCHAR
STARTCHAR r
ENCODING -1 114
SWIDTH 0 0
DWIDTH 0 0
BBX 19 18 0 -18
BITMAP
00000000
00000000
fffe0000
fffe0000
003e0000
003e0000
003e0000
003e0000
0ffe0000
0ffe0000
003e0000
003e0000
003e0000
003e0000
fffe0000
fffe0000
00000000
00000000
ENDCHAR
STARTCHAR s
ENCODING -1 115
SWIDTH 0 0
DWIDTH 0 0
BBX 19 18 0 -18
BITMAP
00000000
00000000
7c004000
7e00c000
3f018000
1f830000
0fc60000
07cc0000
03980000
03380000
067c0000
0c7e0000
183f0000
301f8000
600fc000
4007c000
00000000
00000000
ENDCHAR
STARTCHAR t
ENCODING -1 116
SWIDTH 0 0
DWIDTH 0 0
BBX 19 18 0 -18
BITMAP
00000000
00000000
fffe0000
fffe0000
0f800000
0f800000
0f800000
0f800000
0f800000
0f800000
0f800000
0f800000
0f800000
0f800000
0f800000
0f800000
00000000
00000000
ENDCHAR
STARTCHAR u
ENCODING -1 117
SWIDTH 0 0
DWIDTH 0 0
BBX 19 18 0 -18
BITMAP
00000000
00000000
fffe0000
fffe0000
e03e0000
e03e0000
e03e0000
e03e0000
fffe0000
fffe0000
1f3e0000
3e3e0000
7c3e0000
f83e0000
f03e0000
e03e0000
00000000
00000000
ENDCHAR
STARTCHAR v
ENCODING -1 118
SWIDTH 0 0
DWIDTH 0 0
BBX 19 18 0 -18
BITMAP
00000000
00000000
7ff00000
7ff00000
0f800000
0f800000
0f800000
0f800000
0f800000
0f800000
0f800000
0f800000
0f800000
0f800000
7ff00000
7ff00000
00000000
00000000
ENDCHAR
STARTCHAR w
ENCODING -1 119
SWIDTH 0 0
DWIDTH 0 0
BBX 19 18 0 -18
BITMAP
00000000
00000000
fffe0000
fffe0000
003e0000
003e0000
003e0000
003e0000
fffe0000
fffe0000
e0000000
e0000000
e0000000
e0000000
fffe0000
fffe0000
00000000
00000000
ENDCHAR
STARTCHAR x
ENCODING -1 120
SWIDTH 0 0
DWIDTH 0 0
BBX 9 11 0 -11
BITMAP
f000
d800
d800
db00
f300
0000
f800
1800
1800
db00
fb00
ENDCHAR
STARTCHAR y
ENCODING -1 121
SWIDTH 0 0
DWIDTH 0 0
BBX 8 11 0 -11
BITMAP
0000
0000
0000
0000
0000
0000
0000
0000
0000
0000
0000
ENDCHAR
STARTCHAR z
ENCODING -1 122
SWIDTH 0 0
DWIDTH 0 0
BBX 8 11 0 -11
BITMAP
0000
0000
0000
0000
0000
0000
0000
0000
0000
0000
0000
ENDCHAR
STARTCHAR {
ENCODING -1 123
SWIDTH 0 0
DWIDTH 0 0
BBX 8 11 0 -11
BITMAP
0000
0000
0000
0000
0000
0000
0000
0000
0000
0000
0000
ENDCHAR
STARTCHAR |
ENCODING -1 124
SWIDTH 0 0
DWIDTH 0 0
BBX 20 20 0 -20
BITMAP
000000
0fff00
0fff00
1fff80
1fff80
3fffc0
3fffc0
7fffe0
7fffe0
fffff0
fffff0
7fffe0
7fffe0
3fffc0
3fffc0
1fff80
1fff80
0fff00
0fff00
000000
ENDCHAR
STARTCHAR }
ENCODING -1 125
SWIDTH 0 0
DWIDTH 0 0
BBX 20 20 0 -20
BITMAP
1fff80
1fff80
1fff80
3fffc0
3fffc0
7fffe0
7fffe0
fffff0
fffff0
fffff0
fffff0
fffff0
fffff0
7fffe0
7fffe0
3fffc0
3fffc0
1fff80
1fff80
1fff80
ENDCHAR
STARTCHAR ~
ENCODING -1 126
SWIDTH 0 0
DWIDTH 0 0
BBX 8 11 0 -11
BITMAP
0000
0000
0000
0000
0000
0000
0000
0000
0000
0000
0000
ENDCHAR
STARTCHAR ch-127
ENCODING -1 127
SWIDTH 0 0
DWIDTH 0 0
BBX 8 11 0 -11
BITMAP
0000
0000
0000
0000
0000
0000
0000
0000
0000
0000
0000
ENDCHAR
ENDFONT
STARTFONT 2.1
COMMENT Created by fdbbdf
FONT xhextris
SIZE 10 78 78
FONTBOUNDINGBOX 37 27 0 -27
STARTPROPERTIES 4
Ownership " Created by Jon Slenk for Hextris by David Markley (c) 1990, Created by Khun Yee Fung "
FONT_ASCENT 0
FONT_DESCENT 27
DEFAULT_CHAR 0
ENDPROPERTIES
CHARS 59
STARTCHAR ch-0
ENCODING -1 0
SWIDTH 0 0
DWIDTH 0 0
BBX 9 11 0 -11
BITMAP
f000
d800
d800
db00
f300
0000
f800
1800
1800
db00
fb00
ENDCHAR
STARTCHAR ch-1
ENCODING -1 1
SWIDTH 0 0
DWIDTH 0 0
BBX 8 11 0 -11
BITMAP
0000
0000
0000
0000
0000
0000
0000
0000
0000
0000
0000
ENDCHAR
STARTCHAR ch-2
ENCODING -1 2
SWIDTH 0 0
DWIDTH 0 0
BBX 8 11 0 -11
BITMAP
0000
0000
0000
0000
0000
0000
0000
0000
0000
0000
0000
ENDCHAR
STARTCHAR ch-3
ENCODING -1 3
SWIDTH 0 0
DWIDTH 0 0
BBX 8 11 0 -11
BITMAP
0000
0000
0000
0000
0000
0000
0000
0000
0000
0000
0000
ENDCHAR
STARTCHAR ch-4
ENCODING -1 4
SWIDTH 0 0
DWIDTH 0 0
BBX 8 11 0 -11
BITMAP
0000
0000
0000
0000
0000
0000
0000
0000
0000
0000
0000
ENDCHAR
STARTCHAR ch-5
ENCODING -1 5
SWIDTH 0 0
DWIDTH 0 0
BBX 8 11 0 -11
BITMAP
0000
0000
0000
0000
0000
0000
0000
0000
0000
0000
0000
ENDCHAR
STARTCHAR ch-6
ENCODING -1 6
SWIDTH 0 0
DWIDTH 0 0
BBX 8 11 0 -11
BITMAP
0000
0000
0000
0000
0000
0000
0000
0000
0000
0000
0000
ENDCHAR
STARTCHAR ch-7
ENCODING -1 7
SWIDTH 0 0
DWIDTH 0 0
BBX 8 11 0 -11
BITMAP
0000
0000
0000
0000
0000
0000
0000
0000
0000
0000
0000
ENDCHAR
STARTCHAR &
ENCODING -1 38
SWIDTH 0 0
DWIDTH 0 0
BBX 37 18 0 -18
BITMAP
000000000000
000000000000
000000000000
000000000000
000000000000
000000000000
000000000000
000000000000
000000000000
000000000000
000000000000
000000000000
000000000000
000000000000
000000000000
000000000000
000000000000
000000000000
ENDCHAR
STARTCHAR '
ENCODING -1 39
SWIDTH 0 0
DWIDTH 0 0
BBX 19 18 0 -18
BITMAP
00000000
00000000
7fffc000
7fffc000
7c000000
7df7c000
7dc7c000
7dc7c000
7dc7c000
7dc7c000
7dc7c000
7dc7c000
7df7c000
7c07c000
7fffc000
7fffc000
00000000
00000000
ENDCHAR
STARTCHAR (
ENCODING -1 40
SWIDTH 0 0
DWIDTH 0 0
BBX 19 18 0 -18
BITMAP
00000000
00000000
fffe0000
fffe0000
003e0000
003e0000
003e0000
003e0000
fffe0000
fffe0000
e0000000
e0000000
e0000000
e0000000
fffe0000
fffe0000
00000000
00000000
ENDCHAR
STARTCHAR )
ENCODING -1 41
SWIDTH 0 0
DWIDTH 0 0
BBX 19 18 0 -18
BITMAP
00000000
00000000
7ff00000
7ff00000
0f800000
0f800000
0f800000
0f800000
0f800000
0f800000
0f800000
0f800000
0f800000
0f800000
7ff00000
7ff00000
00000000
00000000
ENDCHAR
STARTCHAR *
ENCODING -1 42
SWIDTH 0 0
DWIDTH 0 0
BBX 19 18 0 -18
BITMAP
00000000
00000000
fffe0000
fffe0000
e03e0000
e03e0000
e03e0000
e03e0000
fffe0000
fffe0000
1f3e0000
3e3e0000
7c3e0000
f83e0000
f03e0000
e03e0000
00000000
00000000
ENDCHAR
STARTCHAR +
ENCODING -1 43
SWIDTH 0 0
DWIDTH 0 0
BBX 19 18 0 -18
BITMAP
00000000
00000000
fffe0000
fffe0000
0f800000
0f800000
0f800000
0f800000
0f800000
0f800000
0f800000
0f800000
0f800000
0f800000
0f800000
0f800000
00000000
00000000
ENDCHAR
STARTCHAR ,
ENCODING -1 44
SWIDTH 0 0
DWIDTH 0 0
BBX 19 18 0 -18
BITMAP
00000000
00000000
e03e0000
e03e0000
e03e0000
e03e0000
e03e0000
e03e0000
fffe0000
fffe0000
e03e0000
e03e0000
e03e0000
e03e0000
e03e0000
e03e0000
00000000
00000000
ENDCHAR
STARTCHAR -
ENCODING -1 45
SWIDTH 0 0
DWIDTH 0 0
BBX 19 18 0 -18
BITMAP
00000000
00000000
fffe0000
fffe0000
003e0000
003e0000
003e0000
003e0000
0ffe0000
0ffe0000
003e0000
003e0000
003e0000
003e0000
fffe0000
fffe0000
00000000
00000000
ENDCHAR
STARTCHAR .
ENCODING -1 46
SWIDTH 0 0
DWIDTH 0 0
BBX 19 18 0 -18
BITMAP
00000000
00000000
7c00c000
3e018000
1f030000
0f860000
07cc0000
03d80000
01b00000
01b00000
03780000
067c0000
0c3e0000
181f0000
300f8000
6007c000
00000000
00000000
ENDCHAR
STARTCHAR /
ENCODING -1 47
SWIDTH 0 0
DWIDTH 0 0
BBX 18 27 0 -27
BITMAP
7fff8000
eaaac000
d5554000
aaaac000
d5554000
aaaac000
d5554000
aaaac000
d5554000
aaaac000
d5554000
aaaac000
d5554000
aaaac000
d5554000
aaaac000
d5554000
aaaac000
d5554000
aaaac000
d5554000
aaaac000
d5554000
aaaac000
d5554000
eaaac000
7fff8000
ENDCHAR
STARTCHAR 0
ENCODING -1 48
SWIDTH 0 0
DWIDTH 0 0
BBX 18 27 0 -27
BITMAP
7fff8000
80004000
80004000
81e04000
87f84000
87384000
8f3c4000
8f3c4000
8f3c4000
8f3c4000
8f3c4000
8f3c4000
8f3c4000
8f3c4000
8f3c4000
8f3c4000
8f3c4000
8f3c4000
8f3c4000
8f3c4000
8f3c4000
87384000
87f84000
81e04000
80004000
80004000
7fff8000
ENDCHAR
STARTCHAR 1
ENCODING -1 49
SWIDTH 0 0
DWIDTH 0 0
BBX 18 27 0 -27
BITMAP
7fff8000
80004000
80004000
80e04000
81e04000
83e04000
83e04000
81e04000
81e04000
81e04000
81e04000
81e04000
81e04000
81e04000
81e04000
81e04000
81e04000
81e04000
81e04000
81e04000
81e04000
81e04000
83f04000
83f04000
80004000
80004000
7fff8000
ENDCHAR
STARTCHAR 2
ENCODING -1 50
SWIDTH 0 0
DWIDTH 0 0
BBX 18 27 0 -27
BITMAP
7fff8000
80004000
80004000
83f04000
87f84000
8f3c4000
8f3c4000
803c4000
803c4000
803c4000
80784000
80f84000
81f04000
83e04000
83c04000
87804000
87804000
8f004000
8f004000
8f004000
8f004000
8f004000
8ffc4000
8ffc4000
80004000
80004000
7fff8000
ENDCHAR
STARTCHAR 3
ENCODING -1 51
SWIDTH 0 0
DWIDTH 0 0
BBX 18 27 0 -27
BITMAP
7fff8000
80004000
80004000
8ffc4000
8ffc4000
8f3c4000
8f3c4000
80784000
80f04000
81e04000
83e04000
83f04000
81f84000
80784000
807c4000
803c4000
803c4000
803c4000
803c4000
803c4000
8f384000
8f384000
8ff04000
83e04000
80004000
80004000
7fff8000
ENDCHAR
STARTCHAR 4
ENCODING -1 52
SWIDTH 0 0
DWIDTH 0 0
BBX 18 27 0 -27
BITMAP
7fff8000
80004000
80004000
807c4000
80fc4000
81fc4000
83fc4000
87bc4000
8f3c4000
9e3c4000
9ffe4000
9ffe4000
803c4000
803c4000
803c4000
803c4000
803c4000
803c4000
803c4000
803c4000
803c4000
803c4000
803c4000
803c4000
80004000
80004000
7fff8000
ENDCHAR
STARTCHAR 5
ENCODING -1 53
SWIDTH 0 0
DWIDTH 0 0
BBX 18 27 0 -27
BITMAP
7fff8000
80004000
80004000
8ffc4000
8ffc4000
8f3c4000
8f3c4000
8f004000
8f004000
8fe04000
8ff84000
80f84000
807c4000
803c4000
803c4000
803c4000
803c4000
803c4000
803c4000
803c4000
8f3c4000
8f784000
8ff84000
83e04000
80004000
80004000
7fff8000
ENDCHAR
STARTCHAR 6
ENCODING -1 54
SWIDTH 0 0
DWIDTH 0 0
BBX 18 27 0 -27
BITMAP
7fff8000
80004000
80004000
81e04000
87f84000
87384000
8f3c4000
8f3c4000
8f004000
8f004000
8f004000
8fe04000
8ff84000
8f384000
8f3c4000
8f3c4000
8f3c4000
8f3c4000
8f3c4000
8f3c4000
8f3c4000
87384000
87f84000
81e04000
80004000
80004000
7fff8000
ENDCHAR
STARTCHAR 7
ENCODING -1 55
SWIDTH 0 0
DWIDTH 0 0
BBX 18 27 0 -27
BITMAP
7fff8000
80004000
80004000
9ffe4000
9ffe4000
801e4000
801e4000
803c4000
80784000
80f04000
80f04000
81e04000
81e04000
81e04000
83c04000
83c04000
83c04000
83c04000
83c04000
83c04000
83c04000
83c04000
83c04000
83c04000
80004000
80004000
7fff8000
ENDCHAR
STARTCHAR 8
ENCODING -1 56
SWIDTH 0 0
DWIDTH 0 0
BBX 18 27 0 -27
BITMAP
7fff8000
80004000
80004000
81e04000
87f84000
87384000
8f3c4000
8f3c4000
8f3c4000
8f3c4000
87384000
87f84000
83f04000
87384000
87384000
8f3c4000
8f3c4000
8f3c4000
8f3c4000
8f3c4000
8f3c4000
87384000
87f84000
81e04000
80004000
80004000
7fff8000
ENDCHAR
STARTCHAR 9
ENCODING -1 57
SWIDTH 0 0
DWIDTH 0 0
BBX 18 27 0 -27
BITMAP
7fff8000
80004000
80004000
81e04000
87f84000
87384000
8f3c4000
8f3c4000
8f3c4000
8f3c4000
8f3c4000
8f3c4000
8f3c4000
87fc4000
87fc4000
81fc4000
803c4000
803c4000
803c4000
8f3c4000
8f3c4000
87384000
87f84000
81e04000
80004000
80004000
7fff8000
ENDCHAR
STARTCHAR :
ENCODING -1 58
SWIDTH 0 0
DWIDTH 0 0
BBX 18 27 0 -27
BITMAP
00000000
00000000
00000000
01c00000
02200000
04300000
3aee0000
45d10000
86218000
5c170000
380e0000
00000000
380e0000
44110000
86218000
5c170000
380e0000
00000000
380e0000
44110000
86218000
5dd70000
3a2e0000
04300000
02e00000
01c00000
00000000
ENDCHAR
STARTCHAR ;
ENCODING -1 59
SWIDTH 0 0
DWIDTH 0 0
BBX 18 27 0 -27
BITMAP
04300000
3aee0000
45d10000
86218000
5c170000
380e0000
00000000
000e0000
00110000
00218000
01d70000
022e0000
04300000
02ee0000
01d10000
00218000
00170000
000e0000
00000000
380e0000
44110000
86218000
5dd70000
3a2e0000
04300000
02e00000
01c00000
ENDCHAR
STARTCHAR a
ENCODING -1 97
SWIDTH 0 0
DWIDTH 0 0
BBX 26 26 0 -26
BITMAP
03fff000
03fff000
07fff800
07fff800
0ffffc00
0ffffc00
1ffffe00
1ffffe00
3fffff00
3fffff00
7fffff80
7fffff80
ffffffc0
ffffffc0
7fffff80
7fffff80
3fffff00
3fffff00
1ffffe00
1ffffe00
0ffffc00
0ffffc00
07fff800
07fff800
03fff000
03fff000
ENDCHAR
STARTCHAR b
ENCODING -1 98
SWIDTH 0 0
DWIDTH 0 0
BBX 26 26 0 -26
BITMAP
03fff000
02001000
04003800
04fff800
09557c00
09aabc00
13555e00
12aabe00
25555f00
26aaaf00
4d555780
4aaaaf80
955557c0
9aaaabc0
4d555780
4aaaaf80
25555f00
26aaaf00
13555e00
12aabe00
09557c00
09aabc00
04fff800
05fff800
03fff000
03fff000
ENDCHAR
STARTCHAR c
ENCODING -1 99
SWIDTH 0 0
DWIDTH 0 0
BBX 26 26 0 -26
BITMAP
03fff000
02001000
04003800
04aab800
09fffc00
08fffc00
13ff8e00
11c09e00
27804700
23804f00
4f002380
47002780
8e0013c0
9e0011c0
4f002780
4f002380
27804f00
27804700
13c09e00
13ff8e00
09803c00
09001c00
04aab800
05fff800
03fff000
03fff000
ENDCHAR
STARTCHAR d
ENCODING -1 100
SWIDTH 0 0
DWIDTH 0 0
BBX 26 26 0 -26
BITMAP
03fff000
02001000
04003800
04fff800
09fffc00
09fffc00
137ffe00
13ff7e00
27ebff00
26d5ff00
4f62df80
4fd17780
9aa4efc0
94017fc0
4850bf80
49045780
24012f00
24205f00
12003e00
12011e00
09083c00
09003c00
04fff800
05fff800
03fff000
03fff000
ENDCHAR
STARTCHAR e
ENCODING -1 101
SWIDTH 0 0
DWIDTH 0 0
BBX 26 26 0 -26
BITMAP
03fff000
02001000
04003800
04fff800
09aabc00
09557c00
12aabe00
137d5e00
26bfef00
257bbf00
4ae1ef80
4fc0d780
9ac0ebc0
95e0d7c0
4ac07f80
4de1d780
2577af00
26bf5f00
1355be00
129b5e00
09aabc00
09557c00
04fff800
05fff800
03fff000
03fff000
ENDCHAR
STARTCHAR f
ENCODING -1 102
SWIDTH 0 0
DWIDTH 0 0
BBX 26 26 0 -26
BITMAP
03fff000
02001000
04003800
04fff800
09003c00
09203c00
12081e00
12821e00
24208f00
26082f00
4c820f80
49208780
904823c0
94120bc0
49048780
4a412780
24904f00
25241f00
12491e00
12925e00
0924bc00
09493c00
04fff800
05fff800
03fff000
03fff000
ENDCHAR
STARTCHAR g
ENCODING -1 103
SWIDTH 0 0
DWIDTH 0 0
BBX 26 26 0 -26
BITMAP
03fff000
02001000
06555800
04fff800
0dfffc00
09d57c00
1beefe00
13eefe00
37555f00
275f5f00
6fbbbf80
4fbbbf80
dd5f57c0
dfd577c0
4eeeef80
6eeeef80
27d57f00
375f5f00
13bbbe00
1bbbbe00
09df7c00
0dd57c00
04fff800
07fff800
03fff000
03fff000
ENDCHAR
STARTCHAR h
ENCODING -1 104
SWIDTH 0 0
DWIDTH 0 0
BBX 26 26 0 -26
BITMAP
03fff000
03fff000
07ffe800
07fff800
0f002c00
0f203400
1f401a00
1e879600
3d4d8900
3e9bcb00
7904c480
7c416580
faa8e240
f5187240
7a70bc80
7dd85c80
3fac2b00
3f051900
1ea29200
1f411200
0faa2c00
0f542400
07ffc800
07510800
02a41000
03fff000
ENDCHAR
STARTCHAR i
ENCODING -1 105
SWIDTH 0 0
DWIDTH 0 0
BBX 26 26 0 -26
BITMAP
03fff000
02215000
0404b800
04ffd800
09fffc00
09ffb400
13fede00
13ff3e00
27fd8f00
27fe4f00
4ffb0780
4ffc8780
9ff603c0
9ff903c0
4fec0780
4ff20780
27d80f00
2fe40f00
13b01e00
17c81e00
0be03c00
0d903c00
06fff800
05bff800
036ff000
03fff000
ENDCHAR
STARTCHAR j
ENCODING -1 106
SWIDTH 0 0
DWIDTH 0 0
BBX 26 26 0 -26
BITMAP
03fff000
02001000
04003800
04fff800
09003c00
09447c00
12001e00
12aabe00
24222f00
25555f00
4aaaaf80
4d75d780
9fffffc0
9fffffc0
4d75d780
4aaaaf80
25555f00
24888f00
12aabe00
12001e00
09113c00
09003c00
04fff800
05fff800
03fff000
03fff000
ENDCHAR
STARTCHAR k
ENCODING -1 107
SWIDTH 0 0
DWIDTH 0 0
BBX 26 26 0 -26
BITMAP
03fff000
03fff000
06003800
06fff800
0dfffc00
0dfffc00
1bfffe00
1bfffe00
37fffb00
37ffff00
6ffffd80
6fffff80
dffffec0
dffffdc0
6fffff80
6ffffd80
37fffb00
37fff700
1bfffe00
1bfff600
0dffec00
0dffdc00
06fff800
07555800
03fff000
03fff000
ENDCHAR
STARTCHAR l
ENCODING -1 108
SWIDTH 0 0
DWIDTH 0 0
BBX 26 26 0 -26
BITMAP
03fff000
03501000
07e2a800
07604800
0d7ca400
0aaf5400
1d41aa00
13602600
22cd5b00
2daa2500
4bd99380
56a2f580
ae65aac0
94a345c0
6215b380
50ab1580
235eeb00
2df22700
1208ca00
15929600
0aa92c00
09435c00
06bea800
05557800
03fef000
03fff000
ENDCHAR
STARTCHAR m
ENCODING -1 109
SWIDTH 0 0
DWIDTH 0 0
BBX 26 26 0 -26
BITMAP
03fff000
0376b000
07dd7800
07bab800
0ffde000
1ffb4400
1ad75e00
0f3eb600
0375df00
1ceb7700
3ff5eb80
7babff80
bed7bbc0
f72ff7c0
6bd6eb80
57edb780
2adb0d00
2d77c000
1fbfc000
15ff7000
0faab000
02f57000
007ab800
037ff800
03fff000
03fff000
ENDCHAR
STARTCHAR p
ENCODING -1 112
SWIDTH 0 0
DWIDTH 0 0
BBX 9 11 0 -11
BITMAP
f000
d800
d800
db00
f300
0000
f800
1800
1800
db00
fb00
ENDCHAR
STARTCHAR q
ENCODING -1 113
SWIDTH 0 0
DWIDTH 0 0
BBX 19 18 0 -18
BITMAP
00000000
00000000
e03e0000
e03e0000
e03e0000
e03e0000
e03e0000
e03e0000
fffe0000
fffe0000
e03e0000
e03e0000
e03e0000
e03e0000
e03e0000
e03e0000
00000000
00000000
ENDCHAR
STARTCHAR r
ENCODING -1 114
SWIDTH 0 0
DWIDTH 0 0
BBX 19 18 0 -18
BITMAP
00000000
00000000
fffe0000
fffe0000
003e0000
003e0000
003e0000
003e0000
0ffe0000
0ffe0000
003e0000
003e0000
003e0000
003e0000
fffe0000
fffe0000
00000000
00000000
ENDCHAR
STARTCHAR s
ENCODING -1 115
SWIDTH 0 0
DWIDTH 0 0
BBX 19 18 0 -18
BITMAP
00000000
00000000
7c004000
7e00c000
3f018000
1f830000
0fc60000
07cc0000
03980000
03380000
067c0000
0c7e0000
183f0000
301f8000
600fc000
4007c000
00000000
00000000
ENDCHAR
STARTCHAR t
ENCODING -1 116
SWIDTH 0 0
DWIDTH 0 0
BBX 19 18 0 -18
BITMAP
00000000
00000000
fffe0000
fffe0000
0f800000
0f800000
0f800000
0f800000
0f800000
0f800000
0f800000
0f800000
0f800000
0f800000
0f800000
0f800000
00000000
00000000
ENDCHAR
STARTCHAR u
ENCODING -1 117
SWIDTH 0 0
DWIDTH 0 0
BBX 19 18 0 -18
BITMAP
00000000
00000000
fffe0000
fffe0000
e03e0000
e03e0000
e03e0000
e03e0000
fffe0000
fffe0000
1f3e0000
3e3e0000
7c3e0000
f83e0000
f03e0000
e03e0000
00000000
00000000
ENDCHAR
STARTCHAR v
ENCODING -1 118
SWIDTH 0 0
DWIDTH 0 0
BBX 19 18 0 -18
BITMAP
00000000
00000000
7ff00000
7ff00000
0f800000
0f800000
0f800000
0f800000
0f800000
0f800000
0f800000
0f800000
0f800000
0f800000
7ff00000
7ff00000
00000000
00000000
ENDCHAR
STARTCHAR w
ENCODING -1 119
SWIDTH 0 0
DWIDTH 0 0
BBX 19 18 0 -18
BITMAP
00000000
00000000
fffe0000
fffe0000
003e0000
003e0000
003e0000
003e0000
fffe0000
fffe0000
e0000000
e0000000
e0000000
e0000000
fffe0000
fffe0000
00000000
00000000
ENDCHAR
STARTCHAR x
ENCODING -1 120
SWIDTH 0 0
DWIDTH 0 0
BBX 9 11 0 -11
BITMAP
f000
d800
d800
db00
f300
0000
f800
1800
1800
db00
fb00
ENDCHAR
STARTCHAR y
ENCODING -1 121
SWIDTH 0 0
DWIDTH 0 0
BBX 8 11 0 -11
BITMAP
0000
0000
0000
0000
0000
0000
0000
0000
0000
0000
0000
ENDCHAR
STARTCHAR z
ENCODING -1 122
SWIDTH 0 0
DWIDTH 0 0
BBX 8 11 0 -11
BITMAP
0000
0000
0000
0000
0000
0000
0000
0000
0000
0000
0000
ENDCHAR
STARTCHAR {
ENCODING -1 123
SWIDTH 0 0
DWIDTH 0 0
BBX 8 11 0 -11
BITMAP
0000
0000
0000
0000
0000
0000
0000
0000
0000
0000
0000
ENDCHAR
STARTCHAR |
ENCODING -1 124
SWIDTH 0 0
DWIDTH 0 0
BBX 20 20 0 -20
BITMAP
000000
0fff00
0fff00
1fff80
1fff80
3fffc0
3fffc0
7fffe0
7fffe0
fffff0
fffff0
7fffe0
7fffe0
3fffc0
3fffc0
1fff80
1fff80
0fff00
0fff00
000000
ENDCHAR
STARTCHAR }
ENCODING -1 125
SWIDTH 0 0
DWIDTH 0 0
BBX 20 20 0 -20
BITMAP
1fff80
1fff80
1fff80
3fffc0
3fffc0
7fffe0
7fffe0
fffff0
fffff0
fffff0
fffff0
fffff0
fffff0
7fffe0
7fffe0
3fffc0
3fffc0
1fff80
1fff80
1fff80
ENDCHAR
STARTCHAR ~
ENCODING -1 126
SWIDTH 0 0
DWIDTH 0 0
BBX 8 11 0 -11
BITMAP
0000
0000
0000
0000
0000
0000
0000
0000
0000
0000
0000
ENDCHAR
STARTCHAR ch-127
ENCODING -1 127
SWIDTH 0 0
DWIDTH 0 0
BBX 8 11 0 -11
BITMAP
0000
0000
0000
0000
0000
0000
0000
0000
0000
0000
0000
ENDCHAR
ENDFONT
